<svg height="24" viewBox="0 0 6.3499999 6.35" width="24" xmlns="http://www.w3.org/2000/svg"><text stroke="#fff" transform="scale(.26458333)"/><path d="m-.00000005 0h6.35000005v6.35h-6.35000005z" fill="#fff"/><g transform="matrix(1.0065665 0 0 1.0065665 -.029306 -.020859)"><path d="m5.5160324 2.3636118q-.3245553 0-.5108218.2173109-.1862665.217311-.1862665.5954885 0 .3753552.1721554.5954884.1749776.217311.5221107.217311.1326443 0 .2511776-.022578.1185332-.022578.231422-.056444v.2201332q-.1128888.042333-.2342442.062089-.1185333.019755-.2850443.019755-.3076219 0-.513644-.1269999-.2060221-.1269998-.3104442-.361244-.1015999-.2342443-.1015999-.5503329 0-.3047998.1100665-.5362219.1128888-.2342442.3301998-.3640664.2173109-.1326443.5277551-.1326443.3189109 0 .5559774.1185332l-.1015999.2144888q-.0931333-.0423333-.2088443-.0762-.1128888-.0338666-.2483554-.0338666z"/><path d="m3.4727432 3.1199668h.6970884v.987777q-.1636888.053622-.3301997.079022-.166511.0254-.3781775.0254-.3132665 0-.5277552-.1241776-.2144887-.1269998-.3273775-.3584219-.1100666-.2342443-.1100666-.5531551 0-.3160887.1241777-.5475107.1241777-.2314221.3555997-.358422.2342443-.1298221.564444-.1298221.1693332 0 .3189109.031044.1523999.031044.282222.087489l-.0959555.2201334q-.1072443-.0479777-.2427109-.0818444-.1326444-.0338666-.2765776-.0338666-.3612441 0-.564444.2173109-.2003776.217311-.2003776.5954885 0 .2398887.0762.4261552.079022.1834443.2455332.2878665.166511.1015999.4374441.1015999.1326443 0 .2257776-.014111.093133-.014111.1693332-.033867v-.5983104h-.4430887z"/><path d="m1.2262817 2.137854c-.2107257 0-.38580299.04316-.52503252.1297078-.13734805.086548-.23974149.2069369-.30747477.3612183-.0677333.1542813-.10180257.335123-.10180257.5420858 0 .2088443.0340693.3910906.10180257.5472534.0677333.1561628.17012672.2777708.30747477.3643188.13922953.086548.31308762.1297079.52193192.1297079.2031998 0 .3737319-.04316.51108-.1297079.137348-.086548.2409606-.2069369.3105753-.3612182.071496-.1561629.1069702-.338926.1069702-.5477702 0-.2088444-.035474-.3903883-.1069702-.5446696-.0696147-.1561629-.1732273-.2765517-.3105753-.3612183-.1373481-.086548-.306661-.1297078-.5079794-.1297078zm0 .2227254c.2276591 0 .3943483.072684.4997111.2175578.105363.1429925.1576131.3413126.1576131.5953125 0 .2539998-.05225.4547582-.1576131.6015136-.1053628.144874-.2732711.2170411-.5028117.2170411-.22765906 0-.39505051-.072167-.50229488-.2170411-.10724436-.1467554-.1607137-.3475138-.1607137-.6015136 0-.2539999.0534693-.45232.1607137-.5953125.10912585-.1448739.27773642-.2175578.50539548-.2175578z"/></g></svg>